<svg id="Capa_1" enable-background="new 0 0 512 512" height="512" viewBox="0 0 512 512" width="512" xmlns="http://www.w3.org/2000/svg"><g><path d="m450.189 182.539v246.852c0 17.07-13.835 30.905-30.905 30.905h-388.379c-17.07 0-30.905-13.835-30.905-30.905v-246.852c0-17.07 13.835-30.905 30.905-30.905h388.378c17.071-.001 30.906 13.835 30.906 30.905z" fill="#b5adb6"/><path d="m169.593 352.13h-92.329c-17.069 0-30.905-13.837-30.905-30.905v-92.329c0-17.069 13.837-30.905 30.905-30.905h92.329c17.069 0 30.905 13.837 30.905 30.905v92.329c0 17.068-13.836 30.905-30.905 30.905z" fill="#fff"/><g><path d="m403.831 205.716h-156.588c-4.267 0-7.726-3.459-7.726-7.726s3.459-7.726 7.726-7.726h156.588c4.267 0 7.726 3.459 7.726 7.726s-3.459 7.726-7.726 7.726z" fill="#e2dee2"/></g><g><path d="m403.831 359.856h-156.588c-4.267 0-7.726-3.459-7.726-7.726s3.459-7.726 7.726-7.726h156.588c4.267 0 7.726 3.459 7.726 7.726 0 4.266-3.459 7.726-7.726 7.726z" fill="#e2dee2"/></g><g><path d="m403.831 390.761h-357.473c-4.267 0-7.726-3.459-7.726-7.726s3.459-7.726 7.726-7.726h357.473c4.267 0 7.726 3.459 7.726 7.726s-3.459 7.726-7.726 7.726z" fill="#e2dee2"/></g><g><path d="m403.831 421.667h-357.473c-4.267 0-7.726-3.459-7.726-7.726s3.459-7.726 7.726-7.726h357.473c4.267 0 7.726 3.459 7.726 7.726 0 4.266-3.459 7.726-7.726 7.726z" fill="#e2dee2"/></g><g><path d="m403.831 328.95h-156.588c-4.267 0-7.726-3.459-7.726-7.726s3.459-7.726 7.726-7.726h156.588c4.267 0 7.726 3.459 7.726 7.726s-3.459 7.726-7.726 7.726z" fill="#e2dee2"/></g><g><path d="m342.02 236.621h-94.777c-4.267 0-7.726-3.459-7.726-7.726s3.459-7.726 7.726-7.726h94.777c4.267 0 7.726 3.459 7.726 7.726s-3.459 7.726-7.726 7.726z" fill="#e2dee2"/></g><circle cx="123.428" cy="266.215" fill="#d78878" r="37.32"/><path d="m77.264 352.13h92.329c2.94 0 5.78-.419 8.474-1.186-3.785-26.795-26.799-47.409-54.638-47.409s-50.853 20.614-54.638 47.409c2.693.766 5.533 1.186 8.473 1.186z" fill="#fd9468"/><g><g><path d="m450.189 182.539v101.978c-13.392 4.45-27.712 6.861-42.577 6.861-74.595 0-135.283-60.688-135.283-135.283 0-1.494.021-2.977.072-4.461h146.883c17.07-.001 30.905 13.835 30.905 30.905z" fill="#a79ba7"/><path d="m342.02 221.169h-52.98c2.967 5.384 6.287 10.546 9.934 15.453h43.046c4.267 0 7.726-3.459 7.726-7.726s-3.459-7.727-7.726-7.727z" fill="#918291"/><path d="m281.754 205.716h122.077c4.267 0 7.726-3.459 7.726-7.726s-3.459-7.726-7.726-7.726h-127.128c1.38 5.281 3.068 10.44 5.051 15.452z" fill="#918291"/><circle cx="407.614" cy="156.089" fill="#98d5b9" r="104.386"/></g><g><path d="m391.213 198.573c-4.449 0-8.898-1.694-12.285-5.08l-20.797-20.797c-3.018-3.017-3.018-7.909 0-10.927 3.017-3.017 7.909-3.017 10.927 0l20.797 20.797c.75.748 1.967.748 2.716 0l53.6-53.6c3.017-3.017 7.909-3.017 10.927 0s3.018 7.909 0 10.927l-53.6 53.6c-3.387 3.386-7.837 5.08-12.285 5.08z" fill="#fff"/></g></g></g></svg>